# xmcd
#
# Track frame offsets:
#	225
#	15165
#	25366
#	35536
#	46036
#	54453
#	66616
#	76278
#	87202
#	97681
#	109521
#	118148
#
# Disc length: 1776 seconds
#
# Revision: 1
# Processed by: cddbd v1.5.2PL0 Copyright (c) Steve Scherf et al.
# Submitted via: audiograbber 1.83.01
#
DISCID=8a06ed0c
DTITLE=Ally Harron - The One I'm Holding Now
DYEAR=1900
DGENRE=
TTITLE0=The One I'm Holding Now
TTITLE1=Love Make The World Go Round
TTITLE2=Don't Stop The Music
TTITLE3=I Won't Be Needing You
TTITLE4=Wime In The Cellar
TTITLE5=From Here To There To You
TTITLE6=The Last Country Song
TTITLE7=D.j For A Day
TTITLE8=That's Why I Sing This Way
TTITLE9=Lovesick Blues
TTITLE10=If I Could Sing A Country Song (Exactly Like George Jones)
TTITLE11=Mother In A Vision
EXTD=
EXTT0=
EXTT1=
EXTT2=
EXTT3=
EXTT4=
EXTT5=
EXTT6=
EXTT7=
EXTT8=
EXTT9=
EXTT10=
EXTT11=
PLAYORDER=
